<svg width="24" height="24" viewBox="0 0 24 24" fill="none" xmlns="http://www.w3.org/2000/svg">
<g clipPath="url(#clip0_23_1977)">
<path fillRule="evenodd" clipRule="evenodd" d="M5.19126 4.41183C5.37944 4.15308 5.68006 4 6 4H18C18.3255 4 18.6306 4.1584 18.8179 4.42461L22.5192 9.68571H23C23.5523 9.68571 24 10.1334 24 10.6857C24 11.238 23.5523 11.6857 23 11.6857V19C23 19.5523 22.5523 20 22 20H18C17.4477 20 17 19.5523 17 19V18H7V19C7 19.5523 6.55228 20 6 20H2C1.44772 20 1 19.5523 1 19V11.5C0.447715 11.5 0 11.0523 0 10.5C0 9.94772 0.447715 9.5 1 9.5H1.49078L5.19126 4.41183ZM6 12C5.44772 12 5 12.4477 5 13C5 13.5523 5.44772 14 6 14H8C8.55228 14 9 13.5523 9 13C9 12.4477 8.55228 12 8 12H6ZM16 12C15.4477 12 15 12.4477 15 13C15 13.5523 15.4477 14 16 14H18C18.5523 14 19 13.5523 19 13C19 12.4477 18.5523 12 18 12H16Z" fill="url(#paint0_linear_23_1977)"/>
</g>
<defs>
<linearGradient id="paint0_linear_23_1977" x1="0" y1="4" x2="14.7692" y2="26.1538" gradientUnits="userSpaceOnUse">
<stop stopColor="#003CFF"/>
<stop offset="1" stopColor="#99CCFF"/>
</linearGradient>
<clipPath id="clip0_23_1977">
<rect width="24" height="24" fill="white"/>
</clipPath>
</defs>
</svg>
