<svg width="24" height="24" viewBox="0 0 24 24" fill="none" xmlns="http://www.w3.org/2000/svg">
<path fillRule="evenodd" clipRule="evenodd" d="M3 4C3 3.44772 3.44772 3 4 3H20C20.5523 3 21 3.44772 21 4V20C21 20.5523 20.5523 21 20 21H4C3.44772 21 3 20.5523 3 20V4ZM9 19V18.5C9 17.9477 8.55228 17.5 8 17.5C7.44772 17.5 7 17.9477 7 18.5V19H5V5H7V5.5C7 6.05228 7.44772 6.5 8 6.5C8.55228 6.5 9 6.05228 9 5.5V5H11V5.5C11 6.05228 11.4477 6.5 12 6.5C12.5523 6.5 13 6.05228 13 5.5V5H15V5.5C15 6.05228 15.4477 6.5 16 6.5C16.5523 6.5 17 6.05228 17 5.5V5H19V19H17V18.5C17 17.9477 16.5523 17.5 16 17.5C15.4477 17.5 15 17.9477 15 18.5V19H13V18.5C13 17.9477 12.5523 17.5 12 17.5C11.4477 17.5 11 17.9477 11 18.5V19H9ZM7 9C7 8.44772 7.44772 8 8 8H16C16.5523 8 17 8.44772 17 9V15C17 15.5523 16.5523 16 16 16H8C7.44772 16 7 15.5523 7 15V9Z" fill="url(#paint0_linear_23_2033)"/>
<defs>
<linearGradient id="paint0_linear_23_2033" x1="3" y1="3" x2="20.9998" y2="21.4617" gradientUnits="userSpaceOnUse">
<stop stopColor="#7700FF"/>
<stop offset="1" stopColor="#D8BFFF"/>
</linearGradient>
</defs>
</svg>
