<svg width="24" height="24" viewBox="0 0 24 24" fill="none" xmlns="http://www.w3.org/2000/svg">
<path d="M10.1122 13.494C9.83969 13.7236 9.56314 13.9719 9.29951 14.231C8.2336 12.0611 7.44798 9.60486 7.05184 7.49863C6.81405 6.23429 6.72606 5.14499 6.78182 4.34735C6.8098 3.94715 6.87124 3.66392 6.94086 3.48296C6.96599 3.41766 6.9879 3.37628 7.00315 3.35159C7.03215 3.35073 7.07895 3.35244 7.14806 3.36333C7.3396 3.39352 7.6156 3.48192 7.97617 3.65779C8.69483 4.00832 9.59419 4.62917 10.5702 5.46727C12.1962 6.86346 13.9306 8.77196 15.2768 10.78C14.9206 10.8788 14.5673 10.9941 14.2323 11.1153C13.3983 11.4169 12.6021 11.7826 12.0536 12.0993C11.5052 12.4159 10.7904 12.9226 10.1122 13.494Z" fill="url(#paint0_linear_23_2043)"/>
<path d="M4.76846 5.08691C1.77303 8.21571 1.06166 13.0606 3.33656 17.0009C3.70826 17.6447 4.62751 17.6722 5.0371 17.0519C5.7361 15.9932 6.57244 15.3094 7.43869 14.978C6.31842 12.663 5.50403 10.0893 5.0863 7.8683C4.89969 6.87609 4.78717 5.92805 4.76846 5.08691Z" fill="url(#paint1_linear_23_2043)"/>
<path d="M9.62333 2.28396C10.3424 2.72073 11.1072 3.29219 11.8732 3.9499C13.5878 5.42219 15.4094 7.4143 16.8541 9.54197C17.5742 8.95746 18.5846 8.57507 19.8509 8.49908C20.593 8.45455 21.0288 7.64467 20.6571 7.00087C18.3822 3.06062 13.8307 1.25424 9.62333 2.28396Z" fill="url(#paint2_linear_23_2043)"/>
<path d="M13.9498 13.3836C13.5952 13.5414 13.2859 13.6972 13.0536 13.8313C12.8214 13.9654 12.5318 14.1554 12.2178 14.3836L15.6308 20.2951C15.9069 20.7734 16.5185 20.9373 16.9968 20.6611C17.4751 20.385 17.639 19.7734 17.3628 19.2951L13.9498 13.3836Z" fill="url(#paint3_linear_23_2043)"/>
<defs>
<linearGradient id="paint0_linear_23_2043" x1="1.99515" y1="1.99921" x2="20.791" y2="21.2784" gradientUnits="userSpaceOnUse">
<stop stopColor="#00BBFF"/>
<stop offset="1" stopColor="#C2F4FF"/>
</linearGradient>
<linearGradient id="paint1_linear_23_2043" x1="1.99515" y1="1.99921" x2="20.791" y2="21.2784" gradientUnits="userSpaceOnUse">
<stop stopColor="#00BBFF"/>
<stop offset="1" stopColor="#C2F4FF"/>
</linearGradient>
<linearGradient id="paint2_linear_23_2043" x1="1.99515" y1="1.99921" x2="20.791" y2="21.2784" gradientUnits="userSpaceOnUse">
<stop stopColor="#00BBFF"/>
<stop offset="1" stopColor="#C2F4FF"/>
</linearGradient>
<linearGradient id="paint3_linear_23_2043" x1="1.99515" y1="1.99921" x2="20.791" y2="21.2784" gradientUnits="userSpaceOnUse">
<stop stopColor="#00BBFF"/>
<stop offset="1" stopColor="#C2F4FF"/>
</linearGradient>
</defs>
</svg>
