<svg width="24" height="24" viewBox="0 0 24 24" fill="none" xmlns="http://www.w3.org/2000/svg">
<path fillRule="evenodd" clipRule="evenodd" d="M22 12C22 17.5228 17.5228 22 12 22C6.47715 22 2 17.5228 2 12C2 6.47715 6.47715 2 12 2C17.5228 2 22 6.47715 22 12ZM14.8474 17C14.9421 17 15.0287 16.9465 15.0711 16.8618L15.9036 15.1967C15.9598 15.0842 15.9238 14.9475 15.8195 14.8774L13.11 13.0567C13.0733 13.032 13.0307 13.0175 12.9865 13.0147L11.2235 12.9022C11.1519 12.8976 11.0819 12.924 11.0311 12.9746L10.1474 13.8551C10.0629 13.9393 10.0497 14.0716 10.1158 14.1709L11.9277 16.8887C11.9741 16.9582 12.0522 17 12.1357 17H14.8474ZM8.13594 10.7325C8.06578 10.8718 7.88664 10.9135 7.76214 10.8197L4.93537 8.68787C4.84055 8.61637 4.80878 8.48776 4.86256 8.38187C6.18337 5.78165 8.8834 4 11.9995 4C12.5834 4 13.1526 4.06254 13.7008 4.18128C13.8359 4.21052 13.9173 4.34679 13.8837 4.4808L13.0376 7.85481C13.0152 7.94418 12.9455 8.01398 12.8561 8.03645L9.11707 8.97706C9.04667 8.99477 8.98745 9.04221 8.95479 9.10703L8.13594 10.7325Z" fill="url(#paint0_linear_23_2048)"/>
<defs>
<linearGradient id="paint0_linear_23_2048" x1="2" y1="2" x2="21.9998" y2="22.513" gradientUnits="userSpaceOnUse">
<stop stopColor="#FF0099"/>
<stop offset="1" stopColor="#FFB3E0"/>
</linearGradient>
</defs>
</svg>
