<svg width="24" height="24" viewBox="0 0 24 24" fill="none" xmlns="http://www.w3.org/2000/svg">
<path d="M22 11C22 9.14001 20.72 7.59001 19 7.14001V3.00001C19 2.68001 18.85 2.38001 18.59 2.19001C18.33 2.00001 18 1.95001 17.7 2.04001L6.69999 5.55001C6.69999 5.55001 6.66999 5.57001 6.64999 5.58001C6.62999 5.58001 6.59999 5.59001 6.56999 5.60001L2.68999 6.84001C2.27999 6.97001 1.98999 7.36001 1.98999 7.79001V14.22C1.98999 14.66 2.26999 15.04 2.68999 15.17L5.98999 16.22V17C5.98999 19.21 7.77999 21 9.98999 21C11.56 21 12.97 20.07 13.62 18.66L17.69 19.95C17.79 19.98 17.89 20 17.99 20C18.2 20 18.41 19.93 18.58 19.81C18.84 19.62 18.99 19.32 18.99 19V14.86C20.71 14.41 21.99 12.86 21.99 11H22ZM3.99999 8.52001L5.99999 7.88001V14.12L3.99999 13.48V8.51001V8.52001ZM9.99999 19C8.89999 19 7.99999 18.1 7.99999 17V16.87L11.68 18.04C11.32 18.62 10.7 19 9.99999 19ZM19 12.72V9.28001C19.59 9.63001 20 10.26 20 11C20 11.74 19.59 12.38 19 12.72Z" fill="url(#paint0_linear_23_1992)"/>
<defs>
<linearGradient id="paint0_linear_23_1992" x1="1.98999" y1="1.99661" x2="20.9163" y2="22.9839" gradientUnits="userSpaceOnUse">
<stop stopColor="#FF0033"/>
<stop offset="1" stopColor="#FFB4B4"/>
</linearGradient>
</defs>
</svg>
