<svg width="24" height="24" viewBox="0 0 24 24" fill="none" xmlns="http://www.w3.org/2000/svg">
<path fillRule="evenodd" clipRule="evenodd" d="M4 3C3.44772 3 3 3.44772 3 4V20C3 20.5523 3.44772 21 4 21H20C20.5523 21 21 20.5523 21 20V4C21 3.44772 20.5523 3 20 3H4ZM10 8C9.44772 8 9 7.55228 9 7V5H11V7C11 7.55228 10.5523 8 10 8ZM7 7V5H5V7C5 7.55228 5.44772 8 6 8C6.55228 8 7 7.55228 7 7ZM13 7V5H15V7C15 7.55228 14.5523 8 14 8C13.4477 8 13 7.55228 13 7ZM17 7V5H19V7C19 7.55228 18.5523 8 18 8C17.4477 8 17 7.55228 17 7ZM9 13C8.44772 13 8 13.4477 8 14V19H10V15H14V19H16V14C16 13.4477 15.5523 13 15 13H9Z" fill="url(#paint0_linear_23_1987)"/>
<defs>
<linearGradient id="paint0_linear_23_1987" x1="3" y1="3" x2="21" y2="21" gradientUnits="userSpaceOnUse">
<stop stopColor="#6200EA"/>
<stop offset="1" stopColor="#D4BBFF"/>
</linearGradient>
</defs>
</svg>
