<svg width="24" height="24" viewBox="0 0 24 24" fill="none" xmlns="http://www.w3.org/2000/svg">
<path fillRule="evenodd" clipRule="evenodd" d="M15 14.9124L12 17.4624V18.882L15 17.382V14.9124ZM10 17.4142L6.58579 14H3.5C3.15342 14 2.83156 13.8205 2.64935 13.5257C2.46714 13.2309 2.45058 12.8628 2.60557 12.5528L5.10557 7.55279C5.27496 7.214 5.62123 7 6 7H10.8147C13.5875 4.06747 16.7595 2 21 2C21.5523 2 22 2.44772 22 3C22 7.24046 19.9325 10.4125 17 13.1853V18C17 18.3788 16.786 18.725 16.4472 18.8944L11.4472 21.3944C11.1372 21.5494 10.7691 21.5329 10.4743 21.3507C10.1795 21.1684 10 20.8466 10 20.5V17.4142ZM6.53756 12L9.08756 9H6.61803L5.11803 12H6.53756ZM2 19C2 17.3431 3.34315 16 5 16C6.65685 16 8 17.3431 8 19C8 20.6569 6.65685 22 5 22H3C2.44772 22 2 21.5523 2 21V19Z" fill="url(#paint0_linear_23_2038)"/>
<defs>
<linearGradient id="paint0_linear_23_2038" x1="2" y1="2" x2="22" y2="22" gradientUnits="userSpaceOnUse">
<stop stopColor="#6366F1"/>
<stop offset="1" stopColor="#A5B4FC"/>
</linearGradient>
</defs>
</svg>
