<svg width="200" height="48" viewBox="0 0 200 48" fill="none" xmlns="http://www.w3.org/2000/svg">
<path d="M23.9316 0C37.1483 0.000202616 47.8623 10.7453 47.8623 24C47.8623 37.2547 37.1483 47.9998 23.9316 48C10.7148 48 0 37.2548 0 24C0 10.7452 10.7148 0 23.9316 0ZM13.8086 25.4961V31.9307C13.8086 32.6825 13.887 33.3823 14.0439 34.0293C14.2008 34.6935 14.4622 35.2703 14.8281 35.7598C15.1768 36.2494 15.6395 36.6343 16.2148 36.9141C16.7902 37.1937 17.4963 37.334 18.333 37.334C19.2743 37.334 20.0848 37.1413 20.7646 36.7568C21.4446 36.3896 22.0115 35.8033 22.4648 34.999C23.1099 36.5551 24.4177 37.3339 26.3877 37.334L26.3906 37.3232C26.5137 37.3299 26.6402 37.334 26.7695 37.334C27.711 37.334 28.5222 37.1415 29.2021 36.7568C29.882 36.3896 30.4481 35.8033 30.9014 34.999C31.5464 36.5551 32.8543 37.3339 34.8242 37.334L35.6875 34.501C34.9205 34.5009 34.3713 34.265 34.04 33.793C33.7088 33.3384 33.543 32.7175 33.543 31.9307V25.4961H30.4043V31.249C30.4043 31.651 30.3615 32.0442 30.2744 32.4287C30.1698 32.8309 30.0129 33.1813 29.8037 33.4785C29.5771 33.7932 29.298 34.0381 28.9668 34.2129C28.6181 34.4052 28.1991 34.501 27.7109 34.501C27.2403 34.501 26.8569 34.422 26.5605 34.2646C26.2642 34.1073 26.0288 33.889 25.8545 33.6094C25.6801 33.3471 25.558 33.0322 25.4883 32.665C25.4185 32.3153 25.3838 31.9481 25.3838 31.5635V25.4961H21.9678V31.249C21.9678 31.651 21.924 32.0442 21.8369 32.4287C21.7323 32.8309 21.5754 33.1813 21.3662 33.4785C21.1396 33.793 20.8604 34.0381 20.5293 34.2129C20.1807 34.405 19.7624 34.501 19.2744 34.501C18.8037 34.501 18.4204 34.422 18.124 34.2646C17.8277 34.1073 17.5923 33.889 17.418 33.6094C17.2436 33.3471 17.1215 33.0322 17.0518 32.665C16.982 32.3153 16.9473 31.9482 16.9473 31.5635V25.4961H13.8086ZM29.0547 10.667C28.1132 10.667 27.302 10.8595 26.6221 11.2441C25.9423 11.6113 25.3761 12.1969 24.9229 13.001C24.2778 11.4449 22.9699 10.6671 21 10.667L20.9961 10.6768C20.8732 10.6701 20.7472 10.667 20.6182 10.667C19.6767 10.667 18.8655 10.8595 18.1855 11.2441C17.5056 11.6113 16.9386 12.1967 16.4854 13.001C15.8402 11.445 14.5325 10.667 12.5625 10.667L11.7002 13.5C12.4671 13.5001 13.0165 13.736 13.3477 14.208C13.6787 14.6626 13.8438 15.2837 13.8438 16.0703V22.5039H16.9824V16.752C16.9824 16.3498 17.0261 15.956 17.1133 15.5713C17.2179 15.1693 17.3748 14.8196 17.584 14.5225C17.8106 14.2077 18.0897 13.9629 18.4209 13.7881C18.7696 13.5957 19.1886 13.5 19.6768 13.5C20.1473 13.5001 20.5308 13.578 20.8271 13.7354C21.1235 13.8927 21.3589 14.1118 21.5332 14.3916C21.7075 14.6538 21.8297 14.9689 21.8994 15.3359C21.9691 15.6855 22.0039 16.053 22.0039 16.4375V22.5039H25.4189V16.752C25.4189 16.3498 25.4626 15.9559 25.5498 15.5713C25.6544 15.1693 25.8114 14.8196 26.0205 14.5225C26.2471 14.2079 26.5263 13.9629 26.8574 13.7881C27.2061 13.5957 27.6251 13.499 28.1133 13.499C28.5839 13.499 28.9673 13.578 29.2637 13.7354C29.5599 13.8926 29.7954 14.111 29.9697 14.3906C30.144 14.6528 30.2662 14.9679 30.3359 15.335C30.4057 15.6846 30.4404 16.0519 30.4404 16.4365V22.5039H33.5791V16.0693C33.5791 15.3177 33.5006 14.6185 33.3438 13.9717C33.1868 13.3072 32.9247 12.7298 32.5586 12.2402C32.2099 11.7508 31.7481 11.3656 31.1729 11.0859C30.5976 10.8063 29.8914 10.667 29.0547 10.667Z" fill="white"/>
<path d="M152.278 16.5926H155.839V30.875H152.278V16.5926Z" fill="white"/>
<path d="M151.774 11.7425C151.774 11.1672 151.981 10.6713 152.397 10.2547C152.832 9.8183 153.376 9.6001 154.029 9.6001C154.681 9.6001 155.225 9.80838 155.661 10.225C156.115 10.6217 156.343 11.1275 156.343 11.7425C156.343 12.3574 156.115 12.8732 155.661 13.2897C155.225 13.6865 154.681 13.8848 154.029 13.8848C153.376 13.8848 152.832 13.6766 152.397 13.26C151.981 12.8236 151.774 12.3177 151.774 11.7425Z" fill="white"/>
<path fill-rule="evenodd" clip-rule="evenodd" d="M131.911 28.9112H132V30.875H135.205V22.6626C135.205 22.3254 135.195 21.9386 135.175 21.5022C135.155 21.0459 135.086 20.5798 134.967 20.1037C134.868 19.6276 134.69 19.1614 134.433 18.7052C134.196 18.2291 133.85 17.8125 133.395 17.4555C132.94 17.0984 132.366 16.8108 131.674 16.5926C130.982 16.3545 130.131 16.2355 129.122 16.2355C127.995 16.2355 126.897 16.414 125.829 16.7711C124.781 17.1282 123.861 17.7133 123.07 18.5267L124.939 20.4012C125.414 19.945 125.977 19.5879 126.63 19.33C127.283 19.0523 127.985 18.9135 128.737 18.9135C129.686 18.9135 130.467 19.1416 131.081 19.5978C131.694 20.0342 132 20.6988 132 21.5914V21.9783H131.11C130.517 21.9783 129.884 21.9981 129.211 22.0378C128.539 22.0576 127.866 22.127 127.194 22.246C126.541 22.3452 125.908 22.5039 125.295 22.7221C124.682 22.9403 124.138 23.2379 123.663 23.6148C123.208 23.9718 122.842 24.4281 122.565 24.9835C122.288 25.5191 122.15 26.1737 122.15 26.9474C122.15 27.6615 122.298 28.2863 122.595 28.8219C122.892 29.3575 123.277 29.8039 123.752 30.1609C124.247 30.518 124.8 30.7858 125.414 30.9643C126.047 31.1428 126.689 31.2321 127.342 31.2321C128.292 31.2321 129.162 31.0536 129.953 30.6965C130.744 30.3196 131.397 29.7245 131.911 28.9112ZM131.051 24.4777H131.793V25.2811C131.793 26.2928 131.496 27.0961 130.903 27.6912C130.329 28.2665 129.429 28.5541 128.203 28.5541C127.906 28.5541 127.609 28.5244 127.313 28.4649C127.016 28.3855 126.749 28.2665 126.511 28.1078C126.274 27.9491 126.076 27.7607 125.918 27.5425C125.78 27.3044 125.71 27.0168 125.71 26.6796C125.71 26.1638 125.898 25.7671 126.274 25.4894C126.65 25.1918 127.105 24.9736 127.639 24.8347C128.193 24.6761 128.776 24.5769 129.389 24.5372C130.003 24.4975 130.556 24.4777 131.051 24.4777Z" fill="white"/>
<path d="M143.842 19.092C145.009 19.092 145.939 19.578 146.631 20.55L149.005 18.4076C148.431 17.6142 147.679 17.0587 146.75 16.7413C145.82 16.4041 144.88 16.2355 143.931 16.2355C143.219 16.2355 142.517 16.3248 141.824 16.5033C141.132 16.6818 140.519 16.9595 139.985 17.3364C139.451 17.7133 139.016 18.1993 138.679 18.7944C138.363 19.3697 138.205 20.0541 138.205 20.8476C138.205 21.76 138.393 22.4742 138.768 22.9899C139.144 23.5057 139.619 23.9123 140.193 24.2099C140.766 24.4876 141.379 24.6959 142.032 24.8347C142.705 24.9538 143.328 25.0926 143.901 25.2513C144.475 25.3902 144.95 25.5786 145.325 25.8167C145.701 26.0547 145.889 26.4217 145.889 26.9176C145.889 27.1953 145.81 27.4433 145.652 27.6615C145.513 27.8599 145.325 28.0285 145.088 28.1673C144.851 28.3062 144.594 28.4054 144.317 28.4649C144.04 28.5244 143.773 28.5541 143.516 28.5541C142.764 28.5541 142.121 28.3955 141.587 28.0781C141.073 27.7408 140.588 27.3143 140.133 26.7986L137.76 29.0302C138.491 29.8634 139.322 30.4386 140.252 30.756C141.182 31.0734 142.2 31.2321 143.308 31.2321C144.04 31.2321 144.772 31.1528 145.503 30.9941C146.235 30.8354 146.888 30.5775 147.462 30.2204C148.055 29.8634 148.53 29.3972 148.886 28.8219C149.262 28.2268 149.45 27.5028 149.45 26.6498C149.45 25.7175 149.262 24.9835 148.886 24.4479C148.51 23.9123 148.035 23.4958 147.462 23.1982C146.888 22.8808 146.265 22.6527 145.592 22.5138C144.94 22.3551 144.327 22.2064 143.753 22.0675C143.179 21.9287 142.705 21.76 142.329 21.5617C141.953 21.3633 141.765 21.0459 141.765 20.6095C141.765 20.0739 141.993 19.6871 142.447 19.4491C142.902 19.211 143.367 19.092 143.842 19.092Z" fill="white"/>
<path d="M161.914 16.5926H157.998L164.08 30.9941L163.397 32.6901C163.239 33.067 163.091 33.3844 162.952 33.6423C162.814 33.92 162.636 34.1382 162.418 34.2969C162.221 34.4754 161.973 34.6044 161.677 34.6837C161.38 34.7631 161.014 34.8027 160.579 34.8027C160.262 34.8027 159.946 34.7631 159.629 34.6837C159.333 34.6242 159.046 34.5449 158.769 34.4457L158.324 37.6592C159.214 37.8973 160.124 38.0163 161.054 38.0163C161.845 38.0163 162.517 37.927 163.071 37.7485C163.645 37.5898 164.139 37.3319 164.555 36.9749C164.97 36.6376 165.326 36.2111 165.623 35.6954C165.939 35.1995 166.226 34.6143 166.483 33.9398L173.218 16.5926H169.509L165.949 26.501H165.89L161.914 16.5926Z" fill="white"/>
<path fill-rule="evenodd" clip-rule="evenodd" d="M184.213 28.9112H184.124C183.609 29.7245 182.957 30.3196 182.165 30.6965C181.374 31.0536 180.504 31.2321 179.554 31.2321C178.902 31.2321 178.259 31.1428 177.626 30.9643C177.013 30.7858 176.459 30.518 175.964 30.1609C175.49 29.8039 175.104 29.3575 174.807 28.8219C174.51 28.2863 174.362 27.6615 174.362 26.9474C174.362 26.1737 174.501 25.5191 174.777 24.9835C175.054 24.4281 175.42 23.9718 175.875 23.6148C176.35 23.2379 176.894 22.9403 177.507 22.7221C178.12 22.5039 178.753 22.3452 179.406 22.246C180.079 22.127 180.751 22.0576 181.424 22.0378C182.096 21.9981 182.729 21.9783 183.322 21.9783H184.213V21.5914C184.213 20.6988 183.906 20.0342 183.293 19.5978C182.68 19.1416 181.898 18.9135 180.949 18.9135C180.197 18.9135 179.495 19.0523 178.842 19.33C178.19 19.5879 177.626 19.945 177.151 20.4012L175.282 18.5267C176.073 17.7133 176.993 17.1282 178.041 16.7711C179.109 16.414 180.207 16.2355 181.335 16.2355C182.343 16.2355 183.194 16.3545 183.886 16.5926C184.578 16.8108 185.152 17.0984 185.607 17.4555C186.062 17.8125 186.408 18.2291 186.645 18.7052C186.903 19.1614 187.081 19.6276 187.18 20.1037C187.298 20.5798 187.367 21.0459 187.387 21.5022C187.407 21.9386 187.417 22.3254 187.417 22.6626V30.875H184.213V28.9112ZM184.005 24.4777H183.263C182.769 24.4777 182.215 24.4975 181.602 24.5372C180.988 24.5769 180.405 24.6761 179.851 24.8347C179.317 24.9736 178.862 25.1918 178.486 25.4894C178.11 25.7671 177.923 26.1638 177.923 26.6796C177.923 27.0168 177.992 27.3044 178.13 27.5425C178.288 27.7607 178.486 27.9491 178.724 28.1078C178.961 28.2665 179.228 28.3855 179.525 28.4649C179.821 28.5244 180.118 28.5541 180.415 28.5541C181.641 28.5541 182.541 28.2665 183.115 27.6912C183.708 27.0961 184.005 26.2928 184.005 25.2811V24.4777Z" fill="white"/>
<path d="M189.586 16.5926V19.6276H192.523V26.1737C192.523 27.0069 192.583 27.7408 192.701 28.3756C192.84 29.0104 193.077 29.546 193.413 29.9824C193.77 30.399 194.244 30.7064 194.838 30.9048C195.451 31.123 196.232 31.2321 197.182 31.2321C197.597 31.2321 198.072 31.1924 198.606 31.1131C199.16 31.0536 199.624 30.9346 200 30.756V27.7508C199.783 27.9094 199.486 28.0285 199.11 28.1078C198.734 28.1673 198.388 28.1971 198.072 28.1971C197.28 28.1971 196.746 27.9888 196.469 27.5722C196.212 27.1557 196.084 26.5903 196.084 25.8762V19.6276H200V16.5926H196.084V12.4566H192.523V16.5926H189.586Z" fill="white"/>
<path d="M83.9314 16.9904H80.0149L86.0973 31.3823L85.4149 33.0772C85.2566 33.4538 85.1083 33.771 84.9698 34.0287C84.8314 34.3062 84.6533 34.5243 84.4358 34.6829C84.238 34.8613 83.9907 34.9901 83.694 35.0694C83.3973 35.1487 83.0314 35.1884 82.5962 35.1884C82.2798 35.1884 81.9633 35.1487 81.6468 35.0694C81.3501 35.0099 81.0633 34.9306 80.7864 34.8315L80.3413 38.0429C81.2314 38.2808 82.1413 38.3998 83.071 38.3998C83.8622 38.3998 84.5347 38.3105 85.0885 38.1321C85.6621 37.9735 86.1566 37.7158 86.572 37.359C86.9874 37.022 87.3434 36.5958 87.6401 36.0804C87.9566 35.5848 88.2434 35 88.5006 34.326L93.0307 23.3634C93.6746 21.8054 95.0576 20.7048 96.6744 20.3996V25.7053C96.6744 26.5582 96.7634 27.3517 96.9414 28.0857C97.1194 28.8395 97.4161 29.4941 97.8315 30.0495C98.2271 30.6049 98.7513 31.0413 99.404 31.3587C100.057 31.6761 100.858 31.8348 101.807 31.8348C102.875 31.8348 103.795 31.6166 104.567 31.1802C105.338 30.7636 105.981 30.0991 106.495 29.1866C107.227 30.9521 108.71 31.8348 110.946 31.8348L110.949 31.8234C111.089 31.831 111.232 31.8348 111.378 31.8348C112.446 31.8348 113.366 31.6166 114.137 31.1802C114.909 30.7636 115.552 30.0991 116.066 29.1866C116.798 30.9521 118.281 31.8348 120.517 31.8348L121.496 28.6212C120.625 28.6212 120.002 28.3534 119.626 27.8178C119.251 27.3021 119.063 26.5979 119.063 25.7052V17.1952H115.502V24.9316C115.502 25.3878 115.453 25.8342 115.354 26.2706C115.235 26.7268 115.057 27.1236 114.82 27.4608C114.563 27.8178 114.246 28.0956 113.87 28.2939C113.475 28.5121 113 28.6212 112.446 28.6212C111.912 28.6212 111.477 28.532 111.141 28.3534C110.805 28.1749 110.538 27.9269 110.34 27.6096C110.142 27.312 110.003 26.9549 109.924 26.5384C109.845 26.1416 109.806 25.7251 109.806 25.2887V17.1952L105.931 17.1953V24.9316C105.931 25.3879 105.882 25.8342 105.783 26.2706C105.664 26.7268 105.486 27.1236 105.249 27.4608C104.992 27.8179 104.675 28.0956 104.3 28.294C103.904 28.5122 103.429 28.6213 102.875 28.6213C102.341 28.6213 101.906 28.532 101.57 28.3535C101.234 28.1749 100.967 27.927 100.769 27.6096C100.571 27.312 100.433 26.955 100.353 26.5384C100.274 26.1417 100.235 25.7251 100.235 25.2887V17.1953H96.6744V17.2049C93.8624 17.3365 91.3551 19.0573 90.2297 21.6594L87.9665 26.8922H87.9072L83.9314 16.9904Z" fill="white"/>
<path d="M70.0419 19.6388C69.31 17.8733 67.8265 16.9906 65.5914 16.9906L65.588 17.0019C65.4487 16.9943 65.3058 16.9906 65.1594 16.9906C64.0913 16.9906 63.1716 17.2088 62.4001 17.6452C61.6287 18.0618 60.9859 18.7263 60.4716 19.6388C59.7397 17.8733 58.2562 16.9906 56.0211 16.9906L55.042 20.2041C55.9123 20.2041 56.5354 20.4719 56.9112 21.0075C57.287 21.5233 57.4749 22.2275 57.4749 23.1201V31.6301H61.0353V23.8938C61.0353 23.4375 61.0848 22.9912 61.1837 22.5548C61.3024 22.0985 61.4804 21.7018 61.7177 21.3646C61.9749 21.0075 62.2914 20.7298 62.6672 20.5314C63.0628 20.3132 63.5375 20.2041 64.0913 20.2041C64.6254 20.2041 65.0605 20.2934 65.3968 20.4719C65.7331 20.6504 66.0001 20.8984 66.1979 21.2158C66.3957 21.5134 66.5342 21.8704 66.6133 22.287C66.6924 22.6837 66.732 23.1003 66.732 23.5367V31.6301L70.6056 31.6302V23.8938C70.6056 23.4376 70.6551 22.9912 70.754 22.5548C70.8727 22.0986 71.0507 21.7018 71.288 21.3646C71.5452 21.0076 71.8617 20.7298 72.2375 20.5315C72.6331 20.3133 73.1078 20.2042 73.6616 20.2042C74.1957 20.2042 74.6309 20.2934 74.9671 20.472C75.3034 20.6505 75.5704 20.8985 75.7682 21.2158C75.966 21.5134 76.1045 21.8705 76.1836 22.287C76.2627 22.6838 76.3023 23.1003 76.3023 23.5367V31.6302H79.8627V23.1202C79.8627 22.2672 79.7736 21.4737 79.5956 20.7398C79.4176 19.986 79.1209 19.3313 78.7055 18.7759C78.3099 18.2205 77.7858 17.7841 77.133 17.4667C76.4803 17.1493 75.6792 16.9906 74.7297 16.9906C73.6616 16.9906 72.7419 17.2088 71.9704 17.6452C71.199 18.0618 70.5562 18.7263 70.0419 19.6388Z" fill="white"/>
</svg>
