<svg width="64" height="65" viewBox="0 0 64 65" fill="none" xmlns="http://www.w3.org/2000/svg">
<path d="M32 0C49.6731 0 63.9999 14.368 64 32.0918C64 49.8157 49.6731 64.1836 32 64.1836C14.3269 64.1836 0 49.8157 0 32.0918C5.96159e-05 14.368 14.3269 0 32 0ZM18.4639 34.0928V42.6963C18.4639 43.7016 18.5695 44.6369 18.7793 45.502C18.9891 46.3904 19.3385 47.1627 19.8281 47.8174C20.2944 48.4719 20.9124 48.9863 21.6816 49.3604C22.4509 49.7343 23.3949 49.9209 24.5137 49.9209C25.7726 49.9209 26.8574 49.6638 27.7666 49.1494C28.6757 48.6584 29.433 47.8751 30.0391 46.7998C30.9017 48.8807 32.6507 49.9209 35.2852 49.9209L35.2891 49.9072C35.4535 49.9162 35.6221 49.9209 35.7949 49.9209C37.0539 49.9209 38.1386 49.6638 39.0479 49.1494C39.9569 48.6584 40.7142 47.8751 41.3203 46.7998C42.1829 48.8807 43.932 49.9209 46.5664 49.9209L47.7197 46.1338C46.6942 46.1337 45.9595 45.8177 45.5166 45.1865C45.0737 44.5786 44.8525 43.7483 44.8525 42.6963V34.0928H40.6562V41.7842C40.6562 42.3219 40.598 42.8489 40.4814 43.3633C40.3416 43.9009 40.1313 44.3682 39.8516 44.7656C39.5485 45.1864 39.1754 45.5143 38.7324 45.748C38.2662 46.0051 37.7063 46.1338 37.0537 46.1338C36.4245 46.1337 35.9119 46.0278 35.5156 45.8174C35.1194 45.607 34.8044 45.3153 34.5713 44.9414C34.3382 44.5908 34.1753 44.1696 34.082 43.6787C33.9888 43.2111 33.9414 42.7195 33.9414 42.2051V34.0928H29.375V41.7852C29.375 42.3228 29.3167 42.849 29.2002 43.3633C29.0603 43.9009 28.85 44.3682 28.5703 44.7656C28.2672 45.1864 27.8941 45.5143 27.4512 45.748C26.9851 46.005 26.4258 46.1337 25.7734 46.1338C25.1441 46.1338 24.6307 46.0287 24.2344 45.8184C23.8381 45.608 23.5232 45.3154 23.29 44.9414C23.0569 44.5907 22.894 44.1696 22.8008 43.6787C22.7076 43.2112 22.6602 42.7203 22.6602 42.2061V34.0928H18.4639ZM38.8506 14.2627C37.5919 14.2627 36.5078 14.5199 35.5986 15.0342C34.6894 15.5252 33.9313 16.3093 33.3252 17.3848C32.4626 15.304 30.7144 14.2628 28.0801 14.2627L28.0752 14.2764C27.9108 14.2674 27.7421 14.2637 27.5693 14.2637C26.3105 14.2637 25.2266 14.5208 24.3174 15.0352C23.4082 15.5261 22.6501 16.3093 22.0439 17.3848C21.1814 15.304 19.4331 14.2638 16.7988 14.2637L15.6445 18.0508C16.6703 18.0508 17.4047 18.3668 17.8477 18.998C18.2906 19.6059 18.5117 20.4362 18.5117 21.4883V30.0918H22.708V22.3994C22.708 21.8618 22.7663 21.3355 22.8828 20.8213C23.0227 20.2837 23.233 19.8163 23.5127 19.4189C23.8158 18.9981 24.1889 18.6703 24.6318 18.4365C25.0981 18.1794 25.6578 18.0508 26.3105 18.0508C26.9396 18.0508 27.4524 18.156 27.8486 18.3662C28.2448 18.5766 28.5599 18.8693 28.793 19.2432C29.0261 19.5938 29.1899 20.0149 29.2832 20.5059C29.3764 20.9733 29.4228 21.4643 29.4229 21.9785V30.0918H33.9902V22.3994C33.9902 21.8617 34.0485 21.3356 34.165 20.8213C34.3049 20.2838 34.5143 19.8163 34.7939 19.4189C35.097 18.9981 35.4702 18.6703 35.9131 18.4365C36.3794 18.1793 36.939 18.0508 37.5918 18.0508C38.2213 18.0508 38.7345 18.1558 39.1309 18.3662C39.527 18.5766 39.8411 18.8692 40.0742 19.2432C40.3074 19.5939 40.4712 20.0149 40.5645 20.5059C40.6577 20.9734 40.7041 21.4643 40.7041 21.9785V30.0918H44.9004V21.4873C44.9004 20.4821 44.7957 19.5466 44.5859 18.6816C44.3761 17.7934 44.0266 17.0217 43.5371 16.3672C43.0709 15.7126 42.4529 15.1983 41.6836 14.8242C40.9142 14.4501 39.9696 14.2627 38.8506 14.2627Z" fill="white"/>
</svg>
